<svg width="400" height="400" viewBox="0 0 400 400" fill="none" xmlns="http://www.w3.org/2000/svg">
<path d="M225.13 317.4C225.66 319.47 225.94 321.64 225.94 323.88C225.94 338.31 214.24 350.01 199.81 350.01C185.38 350.01 173.68 338.31 173.68 323.88C173.68 321.45 174.01 319.09 174.64 316.85" stroke="#6A0BFF" stroke-width="12" stroke-miterlimit="10" stroke-linecap="round" stroke-linejoin="round"/>
<path d="M98.77 263.13H303" stroke="#6A0BFF" stroke-width="12" stroke-miterlimit="10" stroke-linecap="round" stroke-linejoin="round"/>
<path d="M180.22 79.05V70.75C180.22 59.29 189.51 50 200.97 50C212.43 50 221.72 59.29 221.72 70.75V79.05" stroke="#6A0BFF" stroke-width="12" stroke-miterlimit="10" stroke-linecap="round" stroke-linejoin="round"/>
<path d="M73.3201 315.96C73.3201 315.96 102.53 293.39 102.53 179.02C102.53 122.55 146.09 81.74 199.81 81.74C253.53 81.74 297.09 125.3 297.09 179.02V179.73C297.09 294.1 326.68 315.95 326.68 315.95H73.3201V315.96Z" stroke="#191919" stroke-width="12" stroke-miterlimit="10" stroke-linecap="round" stroke-linejoin="round"/>
</svg>
