<svg height="423.674403" viewBox="0 0 199.99999 359.13869" width="236.030308" xmlns="http://www.w3.org/2000/svg"><g transform="translate(.000096 -.00002)"><path d="m163.13215 270.28874s-7.73689-7.76145-9.05142-12.15796l.87439-3.95441s4.99778 4.4702 6.97548 7.4053c1.98948 2.93511 2.33334 4.31055 2.33334 4.31055l-1.12983 4.39652zm15.85398-3.193c.25544-1.28948-1.46092-2.493-1.46092-2.493s-.34386-1.03158-.43228-1.63334c-.0983-.61404-1.90303-1.73159-1.90303-1.73159s-.17684-1.20351-.43228-1.80527c-.25544-.61404-2.67721-.78597-2.67721-.78597s-.5993-.24562-.6779-.51579c-.0983-.25839-1.81755-1.03159-1.81755-1.03159s-2.05138-3.16844-2.56718-4.64213c-.53053-1.46141-7.1474-15.25271-11.03992-21.97029-3.86893-6.71758-9.1251-6.97548-9.55444-6.97548-.43228 0-.77614-.41755-1.03158-2.57896-.27509-2.16142.25544-9.91058.25544-9.91058s2.83735-2.84914 5.32985-3.79476c2.50528-.94513 11.12638-5.84565 16.46901-9.03865 5.32985-3.18071 8.35092-10.77023 8.35092-10.77023 1.20351-7.9211-4.13911-14.98254-4.66669-15.84219-.52071-.85966 6.04214-24.29136 7.93337-35.66336 1.89124-11.35971 6.18951-32.55631-3.62331-47.02306-9.81185-14.479026-32.72776-33.600184-64.76878-35.147561-32.040035-1.547376-50.461189 13.950954-63.049468 25.322946-12.562735 11.371992-24.635223 38.414245-19.98032 60.298575 4.666692 21.87205 18.715892 42.39322 33.207199 50.25291 14.503097 7.84741 23.443497 10.68427 23.443497 10.68427s1.314534 7.41758 5.452662 12.53866c4.13911 5.12108 9.603561 6.53337 17.65975 5.77196 8.06895-.7614 12.98126-2.28422 14.18477-2.51755 1.19075-.20927 3.05743.1228 5.45267 2.41931 2.39426 2.28422 5.01055 6.75442 5.01055 6.75442s-2.68998.0491-4.75315 2.2965c-2.06317 2.22282-3.26668 9.64041-3.78248 16.44395-.53052 6.81583-3.20479 12.14568-3.20479 12.14568s-4.56844-.7614-11.18827 1.71931c-6.63161 2.50528-7.31934 7.67548-7.31934 7.67548s-.0982-1.38772-.5993-5.51406c-.5207-4.13862-3.451384-9.64041-9.223345-16.2843-5.75919-6.63162-6.71709-12.31761-6.71709-12.31761s-2.922823 4.74037-4.126338 10.51233c-1.203516 5.77197.432283 15.68255 4.224584 21.2703 3.782477 5.60003 13.950954 8.79303 13.950954 8.79303s.157194.93334.09825 3.79475c-.09825 2.82458 1.118035 8.95269 1.118035 8.95269s-4.126332 2.32106-4.322824 5.42809c-.157194 3.09476 1.473692 8.9404 9.136884 9.64041 7.6632.68772 9.30883-3.79476 9.30883-3.79476l2.4925.51579c.17684 1.20352 1.38822 4.13862 4.31104 4.91231 2.93462.78597 6.11583.94513 9.91009-1.28948 3.79525-2.24738 3.43862-6.80355 3.43862-6.80355s2.16141 0 7.83513-5.85792c5.69827-5.84565 7.76144-14.46675 7.76144-14.46675s3.79525 2.66493 5.50179 3.43862c1.71931.78597 6.80354 4.99827 10.25493 4.22458 3.43862-.7732 5.16971-3.62283 5.16971-3.62283s2.06317.9579 3.86894 0c1.81755-.94512 2.66443-4.04037 2.66443-4.04037s.78597-.42933 1.31454-1.28948c.50105-.87243-.60913-2.41931-.78597-2.76317-.16702-.34386.35368-.60225.5993-1.89124" fill="#ffe512"/><path d="m119.37822 193.70714s1.89124-5.25617 5.77197-8.00706c3.88072-2.75089 7.67597-1.80527 9.56622-1.2158 1.90401.61404 5.85842 2.50528 5.85842 2.50528l.7565 3.53686s-2.7509 6.63162-7.23387 8.26496c-4.46921 1.63334-8.17899.0884-10.49956-1.11755-2.33335-1.20352-3.79427-2.50528-3.79427-2.50528l-.43228-1.46141z" fill="#fbaf34"/><path d="m95.265671 190.01309s-7.233864-3.10704-15.412856-17.65975c-8.190782-14.55271-10.782516-29.71946-7.060951-35.66335 3.68423-5.9439 10.684269-6.54565 18.249222.94512 7.589516 7.49127 12.845684 18.00361 14.306604 25.83874 1.47369 7.84741.94316 22.65802-.16702 23.86154-1.12983 1.20351-8.436394 1.9772-9.910087 2.6772" fill="#fff"/><path d="m152.62963 171.40025s4.38375-4.39651 2.92283-20.93871c-1.4737-16.52991-7.14741-30.99666-13.0913-33.75983-5.94389-2.75089-10.84441-.33109-12.91937 8.19127-2.07594 8.52286-1.12983 18.69133 1.38723 26.78436 2.48072 8.09303 6.03035 16.97202 8.78125 19.12116 2.75089 2.14913 5.77196 3.45089 5.77196 3.45089z" fill="#fff"/><path d="m132.21114 155.98425s-2.30879-7.57723-1.2772-14.29481c1.01979-6.71758 4.4702-9.12461 7.65141-7.58952 3.193 1.55966 9.56622 10.43866 11.1136 18.44572 1.55917 8.00706.96281 15.0685.34386 17.21764-.58947 2.16141-.93334 2.50527-.93334 2.50527l-3.6351 1.97721s-11.10182-12.05972-13.26323-18.26151" fill="#6caddf"/><path d="m104.47625 161.66779s-4.72859-12.66147-11.371994-13.0913c-6.631616-.42933-8.007062 11.80182-5.24438 21.11065 2.750892 9.29654 8.449169 14.72464 10.083003 16.01412 1.621061 1.28948 4.126341 2.2351 4.126341 2.2351l2.84914-.7732s2.48071-17.14395-.44211-25.49488" fill="#6caddf"/><path d="m98.815304 295.68409s-10.021107 17.58606-21.602363 18.74046c-11.593046 1.14211-32.052808-4.86319-43.780451-5.29302-11.728625-.42933-21.897102 3.43862-27.7545377 9.86146-5.87020754 6.44741-4.99876417 11.45796-4.2864796 15.16675.6975477 3.73336 4.7285873 7.45443 5.2807307 7.73689.5796523.28294 2.1368538 10.29128 15.8913146 13.86498 13.7299 3.58599 23.603639-.28294 37.763856-4.56844 14.172008-4.28599 22.179069-6.58249 27.042254-13.88955 4.874974-7.2825 8.583766-15.86676 10.438653-20.01766 1.866677-4.15089 9.148679-17.16851 9.148679-17.16851s-6.0048.1346-8.141656-4.43336" fill="#fbaf34"/><path d="m119.40475 300.55229s-8.00706 14.58955-10.70883 18.31062c-2.72633 3.7088-6.16495 7.44215-4.59301 12.72288 1.57194 5.29301 9.16146 20.1773 36.62126 24.61066 27.47158 4.43336 40.20723 0 48.07871-4.1509 7.87247-4.13862 9.579-8.71934 9.87374-13.87727.28492-5.14564-1.86569-10.58602-1.86569-10.58602s-1.28997-11.15094-13.16597-14.17201c-11.87501-2.98422-25.88786 1.5965-33.89492 5.30529-8.00608 3.72108-18.32193 6.0053-23.18609 4.71582-4.8622-1.2772-3.72058-4.99827-2.99651-10.02111.69755-4.99827 5.994-12.29305 5.994-12.29305s-6.42334 1.1544-10.15669-.56491" fill="#fbaf34"/><path d="m80.202571 57.879281s-12.932141-26.35453-3.795249-57.87926393c0 0-12.746456 23.60363793 2.2351 58.05119493"/><path d="m64.695398 65.287041s-11.384764-12.919369-14.823379-36.694938c0 0-.687723 20.324673 13.779023 37.0388"/><path d="m58.582523 67.945877c-17.181287 12.022873-28.995387 29.314195-32.286633 48.914303-3.045631 18.16326 1.142603 36.79318 11.519361 51.10028 20.890079 28.7984 45.83183 32.8879 46.863415 33.07211l-.157194-1.28948c-.245616-.0393-24.143992-4.77722-44.518279-32.86334-10.045669-13.86499-14.110112-31.91772-11.150938-49.52834 3.205772-19.059753 14.184779-36.007214 30.911186-47.710787 16.517144-11.556204 34.459838-16.493073 53.334889-14.675519 16.2843 1.547377 32.36032 8.14215 46.54411 19.035192 26.5019 20.373796 23.64098 43.351114 17.02115 69.324944-5.87021 23.06328-5.99301 27.86506-6.02937 28.07383l.77615.88422c0-.0589.97264-5.35442 6.80354-28.28261 6.79176-26.68611 10.78252-50.351154-16.71363-71.486357-14.47952-11.126377-31.54979-18.015888-48.18974-19.612388-19.379052-1.854396-37.800205 3.205281-54.723105 15.043942"/><path d="m92.945097 64.079891c-.835092-2.087731-6.718072-20.496604 4.997782-42.540584 0 0-14.822397 20.324673-5.857436 43.056376.402809 1.019304 1.203515.343862.854742-.515792"/><path d="m43.500756 129.1999s-.520705-10.68427 8.793031-14.99482c0 0-10.512339 1.55966-8.793031 14.99482"/><path d="m142.03575 84.235089s11.88779-.687723 17.57329 10.512338c0 0-3.63511-12.919369-17.57329-10.512338"/><path d="m90.994911 147.86549c-1.41278.45488-2.567172 1.54737-3.438616 3.2544-2.259661 4.43336-1.9158 12.46498.550179 20.0545 2.431592 7.56495 6.828107 13.81586 11.335641 16.12465 1.706535.85965 3.266685 1.0807 4.666695.62582v-.60225c-1.11804.35566-2.40703.15916-3.86894-.57768-4.273704-2.18598-8.743904-8.57198-11.101812-15.89132-2.382469-7.33162-2.517066-14.79832-.38316-19.01063.736847-1.44913 1.694747-2.37019 2.836367-2.73861 4.543884-1.47369 10.831635 6.14038 14.147445 16.35798l-.10807-1.32632c-3.53686-10.95444-9.419841-17.9422-14.589554-16.27202" fill="#6caddf"/><path d="m134.9748 133.03641c-5.1088 1.35088-6.20228 11.66673-3.10753 23.50539l.7958.0688c-2.86191-10.9176-1.56015-21.09836 2.84914-22.26503 1.00702-.25741 2.13685-.0393 3.34037.67593 3.9544 2.29651 7.90881 9.10005 10.05745 17.32817 2.08774 7.95794 2.05138 15.71938-.0982 19.74747l.50105.1965c2.25967-4.23687 2.7509-12.0106.58948-20.21415-2.22331-8.47373-6.63161-15.84219-10.80708-18.28606-1.44913-.84787-2.83734-1.10527-4.12633-.76141" fill="#6caddf"/><path d="m75.758897 132.36588c-4.630341 2.56668-6.398771 9.86146-4.728587 19.52642 3.107526 17.97905 16.382546 31.52474 16.382546 31.52474-.09825-.12281-11.825889-14.27026-14.85973-31.78263-1.547377-8.98953-.09825-15.68255 3.954407-17.90537 3.561423-1.96492 8.670223-.22105 14.405833 4.92459 13.631654 12.20709 15.228154 30.44403 15.952224 37.70196l.74667 1.8544c-.74667-7.41759-1.5965-28.0984-15.658467-40.71075-6.263192-5.62459-12.022381-7.44215-16.197843-5.13336"/><path d="m136.59881 114.76262c-5.24438 1.2772-8.71935 7.68777-8.85394 16.32115-.27509 16.2843 3.75693 25.33522 7.47849 33.34228l-.24561-2.71405c-3.8316-8.20355-5.9321-14.63867-5.69828-30.60367.13755-7.90882 3.15665-13.7299 7.68776-14.84745 3.85616-.94513 8.03163 1.94036 11.15094 7.71232 7.55317 13.97552 7.67499 33.79668 7.6632 33.99317 0 0 2.06317-18.72817-6.30052-34.7423-3.37673-6.47196-8.28903-9.59128-12.88204-8.46145"/><path d="m133.55613 117.39562s5.03511-11.37199.25544-30.35806c0 0 6.07947 14.58955 1.15439 29.20367"/><path d="m137.16765 115.84333s12.28077-13.55797 11.23642-35.65107c0 0 3.23033 20.54573-9.30883 35.27037"/><path d="m142.19884 116.87983s13.18955-6.97548 15.12991-30.615958c0 0 2.18597 18.863258-13.57074 31.131748"/><path d="m80.455064 131.60693s-13.569759-.7732-16.665495-23.76329c0 0-1.559167 18.98607 14.332148 24.53698"/><path d="m74.124082 134.71151s-18.617646-1.28949-25.335718-23.00188c0 0 2.333346 20.42291 24.426941 23.89837"/><path d="m71.658103 139.35973s-14.073761 5.68599-28.553279-8.40005c0 0 10.598795 14.99482 28.430471 9.68953"/><path d="m97.379928 158.61234c10.204832-2.32107 13.422392 29.70718 6.717092 29.58437-6.717092-.12281-15.056225-27.68085-6.717092-29.58437" fill="#004b8d"/><path d="m134.19767 147.75977c7.68777-4.12633 17.4387 21.44223 11.50659 26.35453-5.95568 4.90003-18.48206-22.60889-11.50659-26.35453" fill="#004b8d"/><path d="m91.301439 192.84867s6.607053-5.80881 19.256241-4.12634c0 0-10.733388-5.56319-19.256241 4.12634"/><path d="m141.94635 178.50718s3.36493-6.0667 14.85973-7.61407c0 0-10.34041-1.81756-14.85973 7.61407"/><path d="m127.39707 183.89235c-6.27596 2.39475-8.4246 9.68953-8.53562 9.98427l.88421.46666c0-.0688 2.26065-6.85266 7.94615-9.02636 3.58599-1.37545 7.81057-.6386 12.55095 2.13685l.50105-.71228c-5.10978-3.00879-9.37071-4.35967-13.34968-2.84914"/><path d="m132.56286 198.39584c-5.8093 1.5351-12.17074-3.2544-12.23165-3.30353l-.43228.68773c.25544.20926 6.74263 5.72283 13.17776 4.05265 3.69602-.96969 6.15217-3.97897 8.16622-8.79303l-.57966-.77418c-1.87945 4.42108-4.81406 7.2825-8.1053 8.12987"/><path d="m119.58552 193.49218-.12772.73684c.13755.0491 12.61186 6.05442 21.11015-5.51406l-.25544-.85965c-8.25267 10.48777-20.2387 5.84564-20.72993 5.63687"/><path d="m95.184127 218.16798c8.190783 3.36493 17.463253 1.10527 25.334733-.98246 3.78248-1.00703 9.37072-3.36494 12.39179-3.53687 0 0-4.7895-.49123-13.57074 2.21054-7.4785 2.28423-15.461 3.59827-22.989602.45488-10.941673-4.56844-12.035153-19.31765-12.035153-19.46502 0 0-2.185977 15.98956 10.868972 21.31942"/><path d="m166.37427 167.78853c7.0865 5.55091 9.2597 12.32989 8.70657 17.52466-.62877 5.8088-5.7474 11.60532-15.68205 16.45623-14.45495 7.04916-17.70886 12.14568-17.70886 12.14568s3.88072-3.50002 18.15097-10.43866c10.62238-5.18248 17.3768-11.65445 17.64698-18.24922.50105-12.91937-11.11361-17.43869-11.11361-17.43869"/><path d="m147.11999 209.51613s-2.57896 6.85266 0 17.05798c0 0-3.86893-5.44038-2.19875-15.63342"/><path d="m123.21572 215.58892s6.0667.6386 9.43163 9.55444l-1.16716.27017s-3.22936-7.38074-10.59782-8.67022"/><path d="m145.96462 234.19674s3.48773 3.09475 4.00353 11.2369c0 0 1.15439-8.00706-4.00353-11.2369"/><path d="m147.80673 270.96782c10.04567 9.28426 16.66451 12.04743 20.44699 9.76321 2.13685-1.2772 3.52507-3.63511 4.53209-5.34214.48141-.8233.99426-2.21053 1.28899-2.28422l.94317.01c1.37544.0589 3.34037.30652 4.22458-.33109.6779-.49124 1.03159-1.42457.87439-2.37019-.15719-1.10527-1.35088-1.52282-2.68899-1.94036l-.40281.83509c.84491.27017 1.37544.74863 1.47369 1.37544.0982.49123-.13755.92057-.37334 1.09299-.5207.38022-1.82934.33109-2.86092.29474l-1.00703-.0197c-1.00702 0-1.67018 1.12983-2.57896 2.68949-.99523 1.67018-2.2351 3.78248-4.10178 4.88775-3.16843 1.9158-9.55443-1.5351-18.98607-10.24217-11.6176-10.74567-16.41987-21.56503-16.469-21.66327 0 0 3.81981 12.28077 15.68304 23.24749"/><path d="m173.45192 268.50361c-.25544-.1965-.29473-.62583-.28491-.94513 0-.52857.34386-1.03159.88422-1.46141.80561-.62583 1.94036-.89699 2.89826-.69952.55018.12281.91369.39299 1.10527.8351.0982.22105.11789.46667.11789.69951 0 .39298-.10807.77418-.28491 1.05615-.22597.0589-.76632.13558-1.17896.1847-.74667.0982-1.52281.19649-2.06317.38021-.4814.16014-.95298.13558-1.20351-.0491m-.19649-3.42634c-.8351.65039-1.46092 1.80528-1.49826 2.71405-.0982 1.1544.39299 1.73159.78597 2.03861.58948.45488 1.60927.24562 2.50528-.0491.43228-.14737 1.16716-.24562 1.84211-.3193 1.30177-.15916 1.76844-.24562 2.02682-.62583.30457-.46667.58948-1.42457.58948-2.1737 0-.38021-.0982-.78597-.23579-1.17895-.34386-.82232-1.05615-1.40001-2.01405-1.5965-1.33811-.28295-2.89826.33109-4.00353 1.19123"/><path d="m163.70984 265.07305c-.93334 6.00529-1.43735 7.44214-1.43735 7.44214s1.11805 0 2.70177-7.19653c.78597-3.56142 2.45616-4.67897 3.64788-5.02283-.29474.66316-.58947 1.57194-.58947 2.24738 0 .40477.0982.78597.19649 1.10527.25544.66316.80562 1.05614 1.48548 1.09299 1.6584.0884 2.78823-1.05615 3.43862-1.69475l.32421-.29474c.49123-.44211 1.41278-.70049 2.4198-.11102.83509.50401 1.11706 1.86668 1.15439 2.35791l.90387.19649c0-.0982.15719-2.71405-1.40001-3.64738-1.5965-.9579-3.11932-.46667-3.94262.24561l-.34386.3193c-.58948.56492-1.2772 1.20352-2.38247 1.14211-.15719 0-.26526-.0491-.35369-.28295-.30456-.73684.0983-2.27194.7958-3.00878l.6386-.54036-1.25264-.14737c0-.01-4.94866-.9579-6.0048 5.79653"/><path d="m169.25485 259.4289.68772.78597c.5993-.34386 2.61531-1.21579 3.6469-.6386.58948.3193.90386 1.06843.97264 2.21054l.98246.14737c-.0983-1.63334 0-2.94738-1.04436-3.46318-2.71356-1.3386-5.12059.89699-5.2434.9579"/><path d="m164.76598 259.12424c-.19649.60225-.0982 1.05615.0982 1.33861.36351.67495 1.62106.57768 1.73109.60225l.0983-.87243c-.25544-.0884-.55018-.27018-.43228-.65039.23579-.79874 1.89124-1.75615 3.67244-1.44913.75649.12281.89404.3193.89404.3193l.50105.93334c.1965-.28295.88422-.61404.69755-1.12983-.24561-.57671-.86456-1.22808-1.87846-1.40001-2.39525-.39298-4.94965.87243-5.37898 2.30878"/><path d="m131.52538 224.37704c-6.39779.42933-7.58952 10.05794-8.7557 19.82116l-.32421 2.66492c-1.22808 9.84918-5.51456 13.65622-5.56368 13.68078 0 0 5.52635-3.00879 6.8399-13.52113l.33403-2.66492c1.10527-9.23514 2.13686-17.95449 7.46671-18.31063 5.80831-.39298 9.65269 7.01232 15.33819 20.3738 5.32985 12.55094 14.27124 23.02644 16.37076 24.46329l.26526-.87243c-1.62106-1.11755-9.91107-11.99831-15.36275-24.78259-5.06066-11.88778-9.41984-21.3317-16.61637-20.85275"/><path d="m154.4354 254.60865c.0982.0589 6.26319 5.55091 9.27149 11.34743l.92351-.47845c-3.89349-7.84742-9.56721-11.87551-9.84918-12.10884l-.34386 1.24035z"/><path d="m171.48602 276.47952s3.36493 2.14914 6.04214-3.53686l1.10527-.0786s-2.82458 8.00706-7.30755 4.39651"/><path d="m145.91058 222.99677.0982.84787c.0982-.01 5.60003-.87243 11.75318 11.47024 2.65265 5.37897 4.88775 9.52987 6.61885 13.17726 3.00928 6.33688 5.02332 8.67023 5.67371 9.22286v-.94513c-.47158-.45488-2.17419-4.02809-4.3356-8.57197-1.7311-3.64739-3.90529-8.19128-6.56972-13.57025-6.74263-13.55797-12.91937-11.6913-13.18955-11.62989"/><path d="m129.8994 294.44138c-14.89706 5.26845-24.30413-2.86142-24.64799-3.22985 0 0 10.2176 10.18076 26.10891 4.56845 14.87251-5.26845 18.37204-17.48781 19.71113-22.65802l-1.17895-.62583c-1.28998 4.92459-5.83386 16.93518-19.9931 21.94574"/><path d="m148.24 229.19601c0 .0491 4.44563 6.16494 5.51357 14.56499 1.09348 8.49829-.30456 13.59481-.32421 13.64394l1.09348 1.06842c.0982-.20828 1.90303-6.31231.75649-15.15447-1.12983-8.92812-7.04916-14.12288-7.04916-14.12288"/><path d="m99.438185 268.17645c-3.50051 11.58076 2.934615 20.52116 2.934615 20.52116 0-.0688-4.445641-8.79303-1.22808-19.40361 3.21756-10.65971 13.64443-13.74218 18.81414-12.36674l.69755-1.28948c-6.68074-1.76843-17.72164.99474-21.221172 12.53867"/><path d="m82.33353 259.15499c5.378977 13.07902 16.996584 13.0913 17.463253 13.12815l-.157193-1.24036c-.108071-.01-10.646936-1.19124-16.014123-13.26323-1.60829-3.61055-2.210539-7.20881-2.210539-10.52462 0-6.57021 2.357908-12.072 3.856162-14.72464.599301 2.77545 2.22331 7.94565 6.816318 12.85796 6.25042 6.7053 9.050432 12.55095 9.050432 18.92467l1.10527.58947c0-6.7053-2.07496-13.25095-9.038643-20.57028-6.201297-6.5825-6.827125-15.79307-6.827125-15.79307s-11.078237 13.49656-4.040865 30.61595"/><path d="m93.117028 324.47395-3.97897 8.41232c-4.175461 8.47374-10.72062 13.38604-38.463368 20.07906-16.78732 4.06494-29.965076 3.11932-37.112484-2.70177-3.6970027-2.9965-5.5017845-7.09828-5.3298537-12.1948.4421077-13.88955 15.8785427-16.39483 16.4925817-16.45623 0 0-17.6843075.23284-19.0106306 16.78781-.4617569 5.67372 1.9040104 10.48778 6.0794716 13.87727 7.6632 6.22635 21.933454 6.91407 39.359374 2.71405 28.565068-6.91407 35.025735-12.79656 39.494953-21.87205l4.298269-9.10005c4.4702-9.579 10.451429-20.15274 13.508849-23.76329l-2.30781-.51579c-3.36493 4.01581-8.732113 15.49833-13.030382 24.73347"/><path d="m86.126814 309.93971c-6.656177 5.5509-14.172008 4.55616-35.700687 0-24.242238-5.09652-42.9944808-.45488-48.6072835 13.22639-6.2877537 15.28955 5.7356103 20.44748 5.845646 20.4966l.6680739-.94513c-.4028093-.18372-9.8982998-4.7281-4.3965153-18.11413 6.2514029-15.16675 27.8773459-16.46851 46.0774449-12.62463 20.950992 4.42107 29.0563 5.89477 36.7195-.54036 7.233864-6.02986 12.059715-14.98254 12.244418-15.3264l-1.388219-.51579c0 .0884-4.568446 8.5597-11.457466 14.34394"/><path d="m110.75319 314.27472c-1.37544 2.18598-2.71355 3.95441-3.91805 5.53863-3.57321 4.69125-5.93112 7.81057-3.56143 14.35622 4.77772 13.17726 26.85854 23.16153 54.95694 24.81943 17.37679 1.05615 31.97912-3.5123 38.40245-12.55095 3.61055-5.07195 4.43287-11.05269 1.90303-16.62816-7.20832-15.86675-27.05404-6.64389-27.05404-6.64389.68772-.28295 19.14523-6.22635 24.76982 7.19653 2.08773 4.96143 1.48548 10.15619-1.67019 14.60183-6.0048 8.48601-19.56375 12.95621-36.22826 11.96147-31.51246-1.86668-49.39326-13.12814-53.13938-23.45627-1.98851-5.50178-.22597-7.81057 3.26668-12.41586 1.21629-1.62106 2.66542-4.24914 4.10178-6.49652 5.28171-8.31408 6.87821-13.0299 7.06193-13.95096l-1.05615-.30652c-.16701.65039-2.48071 5.56318-7.83513 13.97551"/><path d="m121.96898 318.39742c.0982 2.1123.89404 3.73336 2.34513 4.75266 3.5742 2.52984 10.43865 1.19124 19.61288-1.58422 2.18598-.66316 4.64213-1.58422 7.24565-2.5544 9.54167-3.5737 21.41766-8.03162 32.59316-4.71581 13.55797 4.00353 12.1334 14.00007 12.05972 14.44218l1.33811.62583c0-.12281 2.9356-12.85797-12.40357-17.40185-11.86323-3.50002-24.48786 1.43685-34.31247 5.1088-2.56619.96969-4.986 1.87896-7.11008 2.493-7.45491 2.25966-15.03166 4.60528-18.07729 2.45615-.93334-.66316-1.42457-1.68247-1.48646-3.15616-.33404-7.17197 6.81631-17.64746 6.89-17.75799l-1.20352-.34386c-.29473.41754-7.8479 9.73865-7.49126 17.63518"/><path d="m95.735288 291.16359c.245615 2.80002 1.76843 5.4895 4.162689 7.35618 2.456153 1.90352 5.539123 2.72633 8.449173 2.24738 6.21407-1.00702 6.77996-4.32283 6.81631-4.45792l-1.11804-.28295c0 .0197-.64842 2.44388-5.69827 3.26669-2.50528.40477-5.14515-.29474-7.24468-1.94036-2.075936-1.60878-3.377698-3.89301-3.57419-6.27548-.402809-4.66669 3.04563-5.83336 3.20479-5.85792l-.23579-.85966c0 .01-5.293504.84787-4.76494 6.80355"/><path d="m131.81324 298.89438c-2.16142 1.76843-5.53912 2.45616-9.02686 1.80528-2.24689-.39299-3.80704-1.17896-4.50655-2.2351-.54035-.84787-.39298-1.58422-.39298-1.62106l-.97264-.18471c0 .14737-.43228 1.31404.45193 2.70177.94317 1.47369 2.39426 2.37019 5.14515 2.86142 3.94262.72407 7.77422-.0589 10.29129-2.12457 1.85489-1.51054 2.33334-3.96669 2.38247-6.36144l-1.00703.3193c0 1.94036-.85474 3.62283-2.36969 4.83862"/><path d="m141.43154 182.12382s-1.80478 9.43163 3.88072 13.70534c0 0-8.52285-3.63511-3.88072-13.70534"/><path d="m114.30185 190.13589s6.97547 2.06317 5.82108 13.43516c0 0 4.12634-10.46321-5.82108-13.43516"/></g></svg>